<?xml version="1.0" encoding="UTF-8"?>
<svg xmlns="http://www.w3.org/2000/svg" width="125" height="104" viewBox="0 0 125 104" fill="none">
  <path d="M64.5909 88.6841H59.7787C58.3026 88.6841 57.1052 87.4868 57.1052 86.0106C57.1052 84.5345 58.3025 83.3371 59.7787 83.3371H64.5909C65.7701 83.3371 66.7296 82.3775 66.7296 81.1984C66.7296 80.0192 65.7701 79.0596 64.5909 79.0596H62.1849C52.7506 79.0596 45.0752 71.3842 45.0752 61.95C45.0752 61.6845 45.0809 61.4143 45.0933 61.146C45.4953 52.4145 52.6495 45.2604 61.38 44.8584C61.6483 44.8459 61.9195 44.8402 62.1849 44.8402C71.6192 44.8402 79.2946 52.5156 79.2946 61.9499C79.2946 63.426 78.0973 64.6234 76.6211 64.6234C75.145 64.6234 73.9476 63.4261 73.9476 61.9499C73.9476 55.2778 68.3679 49.89 61.6252 50.2004C55.6263 50.4764 50.7112 55.3925 50.4352 61.3914C50.4266 61.5776 50.4228 61.7647 50.4228 61.9499C50.4228 68.4357 55.6999 73.7128 62.1857 73.7128H64.5918C68.7194 73.7128 72.0773 77.0707 72.0773 81.1983C72.0763 85.3259 68.7184 88.6838 64.5908 88.6838L64.5909 88.6841Z" fill="white"></path>
  <path d="M63.2532 5.80979C62.5505 5.80979 61.8602 5.52335 61.3628 5.02592C60.8653 4.52847 60.5798 3.83912 60.5798 3.1364C60.5798 2.43273 60.8663 1.74338 61.3628 1.24593C61.8602 0.748474 62.5495 0.463013 63.2532 0.463013C63.9569 0.463013 64.6462 0.748499 65.1437 1.24593C65.6411 1.74335 65.9266 2.43273 65.9266 3.1364C65.9266 3.83912 65.6402 4.52942 65.1437 5.02592C64.6462 5.52337 63.9569 5.80979 63.2532 5.80979Z" fill="white"></path>
  <path d="M63.2532 13.8292C62.5505 13.8292 61.8602 13.5428 61.3628 13.0453C60.8653 12.5479 60.5798 11.8585 60.5798 11.1558C60.5798 10.4521 60.8663 9.76279 61.3628 9.26534C61.8602 8.76789 62.5495 8.48242 63.2532 8.48242C63.9569 8.48242 64.6462 8.76791 65.1437 9.26534C65.6411 9.76276 65.9266 10.4521 65.9266 11.1558C65.9266 11.8585 65.6402 12.5488 65.1437 13.0453C64.6462 13.5428 63.9569 13.8292 63.2532 13.8292Z" fill="white"></path>
  <path d="M63.2532 21.8492C62.5505 21.8492 61.8602 21.5628 61.3628 21.0653C60.8653 20.5679 60.5798 19.8785 60.5798 19.1758C60.5798 18.4722 60.8663 17.7828 61.3628 17.2854C61.8602 16.7879 62.5495 16.5024 63.2532 16.5024C63.9569 16.5024 64.6462 16.7879 65.1437 17.2854C65.6411 17.7828 65.9266 18.4722 65.9266 19.1758C65.9266 19.8785 65.6402 20.5689 65.1437 21.0653C64.6462 21.5628 63.9569 21.8492 63.2532 21.8492Z" fill="white"></path>
  <path d="M63.2532 29.8711C62.5505 29.8711 61.8602 29.5846 61.3628 29.0872C60.8653 28.5897 60.5798 27.9004 60.5798 27.1977C60.5798 26.494 60.8663 25.8047 61.3628 25.3072C61.8602 24.8098 62.5495 24.5243 63.2532 24.5243C63.9569 24.5243 64.6462 24.8098 65.1437 25.3072C65.6411 25.8046 65.9266 26.494 65.9266 27.1977C65.9266 27.9004 65.6402 28.5907 65.1437 29.0872C64.6462 29.5847 63.9569 29.8711 63.2532 29.8711Z" fill="white"></path>
  <path d="M105.236 22.6437C104.532 22.6437 103.843 22.3572 103.345 21.8607C102.848 21.3633 102.562 20.6739 102.562 19.9703C102.562 19.2675 102.848 18.5772 103.345 18.0798C103.843 17.5823 104.529 17.2969 105.236 17.2969C105.938 17.2969 106.629 17.5833 107.125 18.0798C107.623 18.5772 107.909 19.2666 107.909 19.9703C107.909 20.673 107.623 21.3633 107.125 21.8607C106.629 22.3582 105.938 22.6437 105.236 22.6437Z" fill="white"></path>
  <path d="M99.5625 28.3143C98.8589 28.3143 98.1695 28.0307 97.6721 27.5314C97.1746 27.0339 96.8892 26.3465 96.8892 25.6409C96.8892 24.9382 97.1756 24.2479 97.6721 23.7504C98.1695 23.253 98.8589 22.9675 99.5625 22.9675C100.268 22.9675 100.956 23.254 101.455 23.7504C101.952 24.2479 102.236 24.9372 102.236 25.6409C102.236 26.3465 101.952 27.0339 101.455 27.5314C100.956 28.0307 100.269 28.3143 99.5625 28.3143Z" fill="white"></path>
  <path d="M93.8924 33.9874C93.1897 33.9874 92.4994 33.7019 92.0029 33.2045C91.5054 32.707 91.219 32.0177 91.219 31.314C91.219 30.6084 91.5054 29.921 92.0029 29.4245C92.5003 28.927 93.1897 28.6406 93.8924 28.6406C94.5961 28.6406 95.2854 28.9271 95.7829 29.4245C96.2803 29.9219 96.5658 30.6084 96.5658 31.314C96.5658 32.0167 96.2803 32.707 95.7829 33.2045C95.2854 33.701 94.5961 33.9874 93.8924 33.9874Z" fill="white"></path>
  <path d="M88.2212 39.6577C87.5176 39.6577 86.8282 39.3722 86.3308 38.8748C85.8333 38.3773 85.5479 37.688 85.5479 36.9843C85.5479 36.2816 85.8343 35.5913 86.3308 35.0948C86.8282 34.5973 87.5176 34.3109 88.2212 34.3109C88.924 34.3109 89.6143 34.5974 90.1117 35.0948C90.6092 35.5922 90.8946 36.2816 90.8946 36.9843C90.8946 37.687 90.6082 38.3773 90.1117 38.8748C89.6133 39.3712 88.924 39.6577 88.2212 39.6577Z" fill="white"></path>
  <path d="M36.521 86.9173C35.8183 86.9173 35.128 86.6309 34.6306 86.1344C34.1331 85.6341 33.8477 84.9476 33.8477 84.2439C33.8477 83.5412 34.1341 82.8509 34.6306 82.3535C35.128 81.856 35.8174 81.5706 36.521 81.5706C37.2238 81.5706 37.9141 81.857 38.4115 82.3535C38.909 82.8509 39.1944 83.5384 39.1944 84.2439C39.1944 84.9467 38.908 85.637 38.4115 86.1344C37.9141 86.6309 37.2247 86.9173 36.521 86.9173Z" fill="white"></path>
  <path d="M30.8504 92.588C30.1477 92.588 29.4574 92.3015 28.9599 91.8051C28.4596 91.3076 28.177 90.6183 28.177 89.9146C28.177 89.2119 28.4606 88.5216 28.9599 88.0241C29.4574 87.5267 30.1467 87.2412 30.8504 87.2412C31.5531 87.2412 32.2434 87.5277 32.7409 88.0241C33.2383 88.5216 33.5238 89.2109 33.5238 89.9146C33.5238 90.6173 33.2373 91.3076 32.7409 91.8051C32.2425 92.3015 31.5531 92.588 30.8504 92.588Z" fill="white"></path>
  <path d="M25.1773 98.2588C24.4746 98.2588 23.7843 97.9752 23.2868 97.4758C22.7894 96.9784 22.5039 96.291 22.5039 95.5854C22.5039 94.8827 22.7903 94.1924 23.2868 93.6949C23.7843 93.1974 24.4736 92.912 25.1773 92.912C25.8829 92.912 26.5703 93.1984 27.0697 93.6949C27.5671 94.1924 27.8507 94.8817 27.8507 95.5854C27.8507 96.291 27.5671 96.9784 27.0697 97.4758C26.5703 97.9752 25.8829 98.2588 25.1773 98.2588Z" fill="white"></path>
  <path d="M19.5066 103.932C18.8039 103.932 18.1136 103.646 17.6162 103.149C17.1187 102.651 16.8333 101.962 16.8333 101.258C16.8333 100.553 17.1197 99.8653 17.6162 99.3688C18.1136 98.8685 18.803 98.585 19.5066 98.585C20.2094 98.585 20.8997 98.8685 21.3971 99.3688C21.8946 99.8663 22.18 100.556 22.18 101.258C22.18 101.961 21.8936 102.651 21.3971 103.149C20.8997 103.646 20.2103 103.932 19.5066 103.932Z" fill="white"></path>
  <path d="M122.069 63.2892C121.366 63.2892 120.676 63.0027 120.179 62.5053C119.681 62.0078 119.396 61.3185 119.396 60.6158C119.396 59.9121 119.682 59.2227 120.179 58.7253C120.676 58.2278 121.365 57.9424 122.069 57.9424C122.773 57.9424 123.462 58.2279 123.96 58.7253C124.457 59.2227 124.743 59.9121 124.743 60.6158C124.743 61.3185 124.456 62.0088 123.96 62.5053C123.462 63.0027 122.773 63.2892 122.069 63.2892Z" fill="white"></path>
  <path d="M114.05 63.2892C113.347 63.2892 112.657 63.0027 112.16 62.5053C111.662 62.0078 111.377 61.3185 111.377 60.6158C111.377 59.9102 111.663 59.2227 112.16 58.7253C112.657 58.2278 113.346 57.9424 114.05 57.9424C114.754 57.9424 115.443 58.2279 115.941 58.7253C116.438 59.2227 116.723 59.9121 116.723 60.6158C116.723 61.3185 116.437 62.0088 115.941 62.5053C115.443 63.0027 114.754 63.2892 114.05 63.2892Z" fill="white"></path>
  <path d="M106.028 63.2892C105.325 63.2892 104.635 63.0027 104.137 62.5053C103.64 62.0078 103.354 61.3185 103.354 60.6158C103.354 59.9121 103.641 59.2227 104.137 58.7253C104.635 58.2278 105.324 57.9424 106.028 57.9424C106.732 57.9424 107.421 58.2279 107.918 58.7253C108.416 59.2227 108.701 59.9121 108.701 60.6158C108.701 61.3185 108.415 62.0088 107.918 62.5053C107.421 63.0027 106.732 63.2892 106.028 63.2892Z" fill="white"></path>
  <path d="M98.0083 63.2892C97.3056 63.2892 96.6153 63.0027 96.1179 62.5053C95.6204 62.0078 95.335 61.3185 95.335 60.6158C95.335 59.9121 95.6214 59.2227 96.1179 58.7253C96.6153 58.2278 97.3047 57.9424 98.0083 57.9424C98.712 57.9424 99.4014 58.2279 99.8988 58.7253C100.396 59.2227 100.682 59.9121 100.682 60.6158C100.682 61.3185 100.395 62.0088 99.8988 62.5053C99.4014 63.0027 98.712 63.2892 98.0083 63.2892Z" fill="white"></path>
  <path d="M26.7344 63.2892C26.0317 63.2892 25.3414 63.0027 24.844 62.5053C24.3465 62.0078 24.061 61.3185 24.061 60.6158C24.061 59.9121 24.3475 59.2227 24.844 58.7253C25.3414 58.2278 26.0308 57.9424 26.7344 57.9424C27.4371 57.9424 28.1274 58.2279 28.6249 58.7253C29.1223 59.2227 29.4078 59.9092 29.4078 60.6158C29.4078 61.3185 29.1214 62.0088 28.6249 62.5053C28.1265 63.0027 27.4371 63.2892 26.7344 63.2892Z" fill="white"></path>
  <path d="M18.7149 63.2892C18.0122 63.2892 17.3219 63.0027 16.8244 62.5053C16.327 62.0078 16.0415 61.3185 16.0415 60.6158C16.0415 59.9121 16.3279 59.2227 16.8244 58.7253C17.3219 58.2278 18.0112 57.9424 18.7149 57.9424C19.4176 57.9424 20.1079 58.2279 20.6054 58.7253C21.1028 59.2227 21.3883 59.9121 21.3883 60.6158C21.3883 61.3185 21.1018 62.0088 20.6054 62.5053C20.107 63.0027 19.4176 63.2892 18.7149 63.2892Z" fill="white"></path>
  <path d="M10.6927 63.2892C9.98996 63.2892 9.29965 63.0027 8.8022 62.5053C8.30475 62.0078 8.01929 61.3185 8.01929 60.6158C8.01929 59.9121 8.30573 59.2227 8.8022 58.7253C9.29965 58.2278 9.98614 57.9424 10.6927 57.9424C11.3954 57.9424 12.0857 58.2279 12.5831 58.7253C13.0806 59.2227 13.3661 59.9121 13.3661 60.6158C13.3661 61.3185 13.0796 62.0088 12.5831 62.5053C12.0847 63.0027 11.3954 63.2892 10.6927 63.2892Z" fill="white"></path>
  <path d="M2.67314 63.2892C1.97042 63.2892 1.28012 63.0027 0.782669 62.5053C0.285217 62.0078 -0.000244141 61.3185 -0.000244141 60.6158C-0.000244141 59.9121 0.286195 59.2227 0.782669 58.7253C1.28012 58.2278 1.96947 57.9424 2.67314 57.9424C3.37586 57.9424 4.06616 58.2279 4.56362 58.7253C5.06107 59.2227 5.34653 59.9121 5.34653 60.6158C5.34653 61.3185 5.06009 62.0088 4.56362 62.5053C4.06521 63.0027 3.37586 63.2892 2.67314 63.2892Z" fill="white"></path>
  <path d="M19.5066 22.6437C18.8039 22.6437 18.1136 22.3572 17.6162 21.8607C17.1187 21.3633 16.8333 20.6758 16.8333 19.9703C16.8333 19.2675 17.1197 18.5772 17.6162 18.0798C18.1136 17.5823 18.803 17.2969 19.5066 17.2969C20.2094 17.2969 20.8997 17.5833 21.3971 18.0798C21.8946 18.5772 22.18 19.2666 22.18 19.9703C22.18 20.673 21.8936 21.3633 21.3971 21.8607C20.8997 22.3582 20.2103 22.6437 19.5066 22.6437Z" fill="white"></path>
  <path d="M25.1773 28.3143C24.4746 28.3143 23.7843 28.0307 23.2868 27.5333C22.7894 27.033 22.5039 26.3465 22.5039 25.6428C22.5039 24.9372 22.7903 24.2469 23.2868 23.7504C23.7843 23.253 24.4736 22.9675 25.1773 22.9675C25.8829 22.9675 26.5703 23.254 27.0697 23.7504C27.5671 24.2479 27.8507 24.9372 27.8507 25.6428C27.8507 26.3455 27.5671 27.033 27.0697 27.5333C26.5703 28.0307 25.8829 28.3143 25.1773 28.3143Z" fill="white"></path>
  <path d="M30.8504 33.9874C30.1477 33.9874 29.4574 33.7019 28.9599 33.2045C28.4596 32.707 28.177 32.0177 28.177 31.314C28.177 30.6113 28.4606 29.921 28.9599 29.4245C29.4574 28.927 30.1439 28.6406 30.8504 28.6406C31.5531 28.6406 32.2434 28.9271 32.7409 29.4245C33.2383 29.9219 33.5238 30.6113 33.5238 31.314C33.5238 32.0167 33.2373 32.707 32.7409 33.2045C32.2425 33.701 31.5531 33.9874 30.8504 33.9874Z" fill="white"></path>
  <path d="M36.521 39.6577C35.8183 39.6577 35.128 39.3722 34.6306 38.8748C34.1331 38.3773 33.8477 37.688 33.8477 36.9843C33.8477 36.2816 34.1341 35.5913 34.6306 35.0948C35.128 34.5973 35.8174 34.3109 36.521 34.3109C37.2238 34.3109 37.9141 34.5974 38.4115 35.0948C38.909 35.5922 39.1944 36.2816 39.1944 36.9843C39.1944 37.6899 38.908 38.3773 38.4115 38.8748C37.9141 39.3712 37.2247 39.6577 36.521 39.6577Z" fill="white"></path>
  <path d="M88.2212 86.9173C87.5176 86.9173 86.8282 86.6309 86.3308 86.1344C85.8333 85.637 85.5479 84.9476 85.5479 84.2439C85.5479 83.5384 85.8343 82.8509 86.3308 82.3535C86.8282 81.8532 87.5176 81.5706 88.2212 81.5706C88.924 81.5706 89.6143 81.8541 90.1117 82.3535C90.6092 82.8509 90.8946 83.5403 90.8946 84.2439C90.8946 84.9467 90.6082 85.637 90.1117 86.1344C89.6133 86.6309 88.924 86.9173 88.2212 86.9173Z" fill="white"></path>
  <path d="M93.8924 92.588C93.1897 92.588 92.4994 92.3015 92.0029 91.8051C91.5054 91.3076 91.219 90.6183 91.219 89.9146C91.219 89.2119 91.5054 88.5216 92.0029 88.0241C92.5003 87.5267 93.1897 87.2412 93.8924 87.2412C94.5961 87.2412 95.2854 87.5277 95.7829 88.0241C96.2803 88.5216 96.5658 89.2109 96.5658 89.9146C96.5658 90.6173 96.2803 91.3076 95.7829 91.8051C95.2854 92.3015 94.5961 92.588 93.8924 92.588Z" fill="white"></path>
  <path d="M99.5625 98.2588C98.8589 98.2588 98.1695 97.9752 97.6721 97.4778C97.1746 96.9774 96.8892 96.291 96.8892 95.5854C96.8892 94.8827 97.1756 94.1952 97.6721 93.6949C98.1695 93.1974 98.8589 92.912 99.5625 92.912C100.268 92.912 100.956 93.1984 101.455 93.6949C101.952 94.1952 102.236 94.8817 102.236 95.5854C102.236 96.2881 101.952 96.9784 101.455 97.4778C100.956 97.9752 100.269 98.2588 99.5625 98.2588Z" fill="white"></path>
  <path d="M105.236 103.932C104.532 103.932 103.843 103.646 103.345 103.149C102.848 102.651 102.562 101.962 102.562 101.258C102.562 100.553 102.848 99.8653 103.345 99.3688C103.843 98.8685 104.532 98.585 105.236 98.585C105.938 98.585 106.629 98.8685 107.125 99.3688C107.623 99.8663 107.909 100.553 107.909 101.258C107.909 101.961 107.623 102.651 107.125 103.149C106.629 103.646 105.938 103.932 105.236 103.932Z" fill="white"></path>
</svg>
