<svg xmlns="http://www.w3.org/2000/svg" width="90" height="43" viewBox="0 0 90 43" fill="none"><path d="M28 12.8667H21C18.6131 12.8667 16.3239 13.8149 14.636 15.5027C12.9482 17.1906 12 19.4797 12 21.8667C12 24.2536 12.9482 26.5428 14.636 28.2307C16.3239 29.9185 18.6131 30.8667 21 30.8667H28.83C29.1403 30.8667 29.4379 30.7434 29.6573 30.524C29.8767 30.3046 30 30.007 30 29.6967V9.0367C30.0021 7.23653 30.5987 5.48745 31.6972 4.06123C32.7956 2.63501 34.3343 1.6115 36.0742 1.14972C37.8142 0.68794 39.6579 0.813749 41.319 1.5076C42.9801 2.20145 44.3655 3.42449 45.26 4.9867L54 20.2767V9.0367C54.0021 7.23653 54.5987 5.48745 55.6972 4.06123C56.7956 2.63501 58.3343 1.6115 60.0742 1.14972C61.8142 0.68794 63.6579 0.813749 65.319 1.5076C66.9801 2.20145 68.3655 3.42449 69.26 4.9867L78 20.2767V0.866699H83L84 1.8667L85 0.866699H90V34.6967C89.9979 36.4969 89.4013 38.2459 88.3028 39.6722C87.2044 41.0984 85.6657 42.1219 83.9258 42.5837C82.1858 43.0455 80.3421 42.9196 78.681 42.2258C77.0199 41.5319 75.6345 40.3089 74.74 38.7467L66 23.4567V34.6967C65.9979 36.4969 65.4013 38.2459 64.3028 39.6722C63.2044 41.0984 61.6657 42.1219 59.9258 42.5837C58.1858 43.0455 56.3421 42.9196 54.681 42.2258C53.0199 41.5319 51.6345 40.3089 50.74 38.7467L42 23.4567V34.6967C42 36.8635 41.1392 38.9416 39.6071 40.4738C38.0749 42.0059 35.9968 42.8667 33.83 42.8667H21C15.4305 42.8667 10.089 40.6542 6.15076 36.7159C2.21249 32.7777 0 27.4362 0 21.8667C0 16.2972 2.21249 10.9557 6.15076 7.01746C10.089 3.07919 15.4305 0.866699 21 0.866699H28V5.8667L27 6.8667L28 7.8667V12.8667Z" fill="#E4252A"></path><path fill-rule="evenodd" clip-rule="evenodd" d="M85 0.866699V34.6984C84.9988 35.396 84.7675 36.0736 84.3421 36.6264C83.9166 37.1792 83.3208 37.5762 82.6468 37.7559C81.9728 37.9357 81.2583 37.8881 80.6141 37.6205C79.97 37.353 79.432 36.8804 79.0836 36.2761L79.0818 36.2729L63.1836 8.45612C63.1834 8.45572 63.1832 8.45533 63.1829 8.45494C63.0543 8.23246 62.8561 8.05849 62.6187 7.95992C62.381 7.86117 62.1173 7.84361 61.8685 7.90994C61.6198 7.97628 61.3998 8.12281 61.2428 8.32683C61.0858 8.53086 61.0004 8.78097 61 9.03842V34.6984C60.9988 35.396 60.7675 36.0736 60.3421 36.6264C59.9167 37.1792 59.3208 37.5762 58.6468 37.7559C57.9728 37.9357 57.2583 37.8881 56.6141 37.6205C55.97 37.353 55.432 36.8804 55.0836 36.2761L55.0818 36.2729L39.1836 8.45612C39.1834 8.45572 39.1832 8.45533 39.1829 8.45494C39.0544 8.23246 38.8561 8.05849 38.6187 7.95992C38.381 7.86117 38.1173 7.84361 37.8685 7.90994C37.6198 7.97628 37.3998 8.12281 37.2428 8.32683C37.0858 8.53085 37.0004 8.78097 37 9.03842V34.6967C37 35.113 36.918 35.5252 36.7587 35.9098C36.5994 36.2944 36.3659 36.6439 36.0715 36.9382C35.7772 37.2326 35.4277 37.4661 35.0431 37.6254C34.6585 37.7847 34.2463 37.8667 33.83 37.8667H21C16.7565 37.8667 12.6869 36.181 9.68629 33.1804C6.68571 30.1798 5 26.1102 5 21.8667C5 17.6232 6.68571 13.5536 9.68629 10.553C12.6869 7.55241 16.7565 5.8667 21 5.8667H28V7.8667H21C17.287 7.8667 13.726 9.3417 11.1005 11.9672C8.47499 14.5927 7 18.1537 7 21.8667C7 25.5797 8.47499 29.1407 11.1005 31.7662C13.726 34.3917 17.287 35.8667 21 35.8667H33.83C33.9836 35.8667 34.1358 35.8364 34.2777 35.7776C34.4197 35.7188 34.5487 35.6327 34.6573 35.524C34.766 35.4154 34.8521 35.2864 34.9109 35.1444C34.9697 35.0025 35 34.8503 35 34.6967V9.03498C35.0012 8.33744 35.2324 7.65977 35.6579 7.10699C36.0833 6.55422 36.6792 6.1572 37.3532 5.97747C38.0272 5.79774 38.7416 5.84534 39.3858 6.11287C40.03 6.38041 40.568 6.85296 40.9164 7.45728L40.9182 7.46049L56.8163 35.2773C56.8166 35.2777 56.8168 35.2781 56.8171 35.2786C56.9457 35.501 57.1439 35.6749 57.3812 35.7735C57.619 35.8722 57.8827 35.8898 58.1315 35.8235C58.3802 35.7571 58.6001 35.6106 58.7572 35.4066C58.9138 35.203 58.9992 34.9535 59 34.6967C59 34.6961 59 34.6956 59 34.695L59 34.6967M59 34.695L59 9.0367L59 9.03498C59.0012 8.33744 59.2324 7.65977 59.6579 7.10699C60.0833 6.55422 60.6792 6.1572 61.3532 5.97747C62.0272 5.79774 62.7416 5.84534 63.3858 6.11287C64.03 6.38041 64.568 6.85296 64.9163 7.45728L64.9182 7.46049L80.8163 35.2773C80.8166 35.2777 80.8168 35.2781 80.8171 35.2786C80.9457 35.501 81.1439 35.6749 81.3812 35.7735C81.619 35.8722 81.8827 35.8898 82.1314 35.8235C82.3802 35.7571 82.6001 35.6106 82.7572 35.4066C82.9142 35.2025 82.9995 34.9524 83 34.695V0.866699H85" fill="white"></path></svg>