<?xml version="1.0" encoding="UTF-8"?>
<svg xmlns="http://www.w3.org/2000/svg" width="106" height="104" viewBox="0 0 106 104" fill="none">
  <path d="M62.339 103.931C61.1545 103.931 60.0984 103.091 59.8633 101.884C59.6027 100.517 60.4952 99.1954 61.8649 98.9324C84.2461 94.6325 100.487 74.9767 100.487 52.1972C100.487 29.4178 84.2446 9.76093 61.8649 5.46002C60.496 5.1978 59.6026 3.8754 59.8633 2.50892C60.1288 1.14082 61.4543 0.250687 62.8152 0.508906C87.5675 5.26516 105.531 27.0021 105.531 52.1978C105.531 77.3915 87.5667 99.1301 62.8173 103.889C62.6561 103.917 62.4965 103.932 62.3393 103.932L62.339 103.931Z" fill="white"></path>
  <g opacity="0.2">
    <path d="M62.3393 90.9883C61.2222 90.9883 60.1997 90.2377 59.9006 89.1038C59.5485 87.7566 60.3561 86.3781 61.7033 86.026C77.1164 81.9988 87.8803 68.0852 87.8803 52.1956C87.8803 36.3061 77.1168 22.3931 61.7033 18.3612C60.3561 18.0091 59.5485 16.6306 59.9006 15.285C60.255 13.9354 61.6344 13.1303 62.9784 13.4839C80.6104 18.0934 92.9225 34.0117 92.9225 52.1962C92.9225 70.3807 80.6096 86.2996 62.9784 90.9085C62.7634 90.9614 62.5501 90.9887 62.3384 90.9887L62.3393 90.9883Z" fill="white"></path>
    <path d="M43.4012 90.9885C43.1911 90.9885 42.977 90.9612 42.762 90.9067C25.1316 86.2981 12.8179 70.3781 12.8179 52.1944C12.8179 34.0107 25.1308 18.091 42.76 13.4821C44.1145 13.1293 45.4865 13.936 45.8361 15.2833C46.189 16.6305 45.3822 18.0081 44.035 18.3594C28.6244 22.3899 17.8621 36.3041 17.8621 52.1939C17.8621 68.0836 28.6264 81.9985 44.037 86.0263C45.3843 86.3784 46.1918 87.7577 45.8382 89.1041C45.5415 90.2372 44.519 90.9878 43.4003 90.9878L43.4012 90.9885Z" fill="white"></path>
  </g>
  <path d="M43.4009 103.93C43.2437 103.93 43.0833 103.915 42.9214 103.885C18.1732 99.1284 0.209961 77.3903 0.209961 52.1966C0.209961 27.0008 18.174 5.26227 42.9234 0.507659C44.2923 0.24864 45.6124 1.13957 45.8745 2.50767C46.1376 3.87497 45.2426 5.19662 43.8745 5.45878C21.4954 9.75866 5.25461 29.4145 5.25461 52.196C5.25461 74.9754 21.4968 94.6323 43.8745 98.9312C45.2418 99.1942 46.1369 100.517 45.8737 101.883C45.6436 103.09 44.5866 103.93 43.4014 103.93L43.4009 103.93Z" fill="white"></path>
  <path d="M62.3432 77.7656C61.3536 77.7656 60.4129 77.1769 60.012 76.2042C59.482 74.9163 60.0962 73.4416 61.3833 72.9115C69.8213 69.44 75.2727 61.306 75.2727 52.1953C75.2727 43.0829 69.8211 34.9514 61.3817 31.4791C60.0938 30.949 59.4803 29.4766 60.0104 28.188C60.5429 26.9001 62.012 26.285 63.3031 26.8151C73.6384 31.0678 80.3169 41.0292 80.3169 52.1935C80.3169 63.3578 73.6384 73.3203 63.3031 77.574C62.9879 77.7015 62.6624 77.7633 62.3432 77.7633L62.3432 77.7656Z" fill="white"></path>
  <path d="M43.399 77.766C43.0806 77.766 42.755 77.7043 42.4415 77.576C32.1062 73.3241 25.4277 63.3602 25.4277 52.1955C25.4277 41.0308 32.1062 31.0687 42.4415 26.817C43.735 26.287 45.2017 26.9021 45.7325 28.19C46.2626 29.4778 45.6475 30.9518 44.3596 31.481C35.9225 34.9509 30.4703 43.0834 30.4703 52.1972C30.4703 61.3111 35.9219 69.4419 44.3588 72.9134C45.6467 73.4435 46.2618 74.9183 45.7317 76.2062C45.33 77.1789 44.3909 77.7675 43.399 77.7675L43.399 77.766Z" fill="white"></path>
  <path d="M62.7992 52.1964C62.7992 51.2076 62.6108 50.2734 62.3413 49.3719V55.0216C62.6108 54.1203 62.7992 53.1844 62.7992 52.1964Z" fill="white"></path>
  <path d="M42.9434 52.1963C42.9434 53.1851 43.1318 54.1194 43.4013 55.0208V49.3711C43.1318 50.2725 42.9434 51.2083 42.9434 52.1963Z" fill="white"></path>
  <path d="M52.8708 62.1244C57.3657 62.1244 61.1195 59.1178 62.3425 55.0194V49.3697C61.1195 45.2726 57.3665 42.2646 52.8708 42.2646C48.3745 42.2646 44.6221 45.2712 43.3992 49.3697V55.0194C44.6221 59.1181 48.3751 62.1244 52.8708 62.1244Z" fill="white"></path>
</svg>
