<?xml version="1.0" encoding="UTF-8"?>
<svg xmlns="http://www.w3.org/2000/svg" width="321" height="63" viewBox="0 0 321 63" fill="none">
  <path d="M79.603 21.4283H67.599L65.3179 26.9628H59.1851L70.7029 1.12256H76.6113L88.1665 26.9628H81.8841L79.603 21.4283ZM77.7332 16.866L73.6197 6.95625L69.5062 16.866H77.7332Z" fill="#005CB4"></path>
  <path d="M96.2437 5.98397H87.9419V1.12256H110.454V5.98397H102.19V26.9628H96.2063V5.98397H96.2437Z" fill="#005CB4"></path>
  <path d="M113.708 1.12256H119.691V22.1014H132.63V26.9628H113.708V1.12256Z" fill="#005CB4"></path>
  <path d="M153.01 21.4283H141.006L138.725 26.9628H132.592L144.11 1.12256H150.019L161.574 26.9628H155.291L153.01 21.4283ZM151.103 16.866L146.99 6.95625L142.876 16.866H151.103Z" fill="#005CB4"></path>
  <path d="M187.975 1.12256V26.9628H183.076L170.175 11.2567V26.9628H164.266V1.12256H169.202L182.066 16.8286V1.12256H187.975Z" fill="#005CB4"></path>
  <path d="M205.775 26.5889C203.905 26.0653 202.409 25.3548 201.288 24.5321L203.718 19.9325C204.915 20.7926 206.224 21.4657 207.72 21.9145C209.178 22.4006 210.711 22.625 212.244 22.625C213.89 22.625 215.199 22.3632 216.171 21.8023C217.143 21.2787 217.592 20.5308 217.592 19.5959C217.592 18.848 217.218 18.2497 216.433 17.8384C215.685 17.427 214.451 16.9783 212.768 16.5295C211.085 16.0434 209.739 15.5572 208.655 15.1085C207.607 14.6597 206.673 13.9866 205.887 13.0517C205.102 12.1542 204.728 10.9202 204.728 9.42437C204.728 7.66679 205.214 6.13357 206.186 4.82473C207.159 3.47849 208.542 2.46882 210.337 1.75831C212.132 1.04779 214.189 0.673828 216.545 0.673828C218.303 0.673828 219.948 0.860805 221.481 1.23476C223.014 1.60871 224.361 2.16966 225.482 2.88017L223.239 7.44241C222.266 6.76929 221.182 6.28315 219.985 5.94659C218.789 5.61003 217.517 5.46045 216.208 5.46045C214.526 5.46045 213.179 5.75961 212.17 6.35794C211.197 6.95627 210.711 7.70418 210.711 8.63907C210.711 9.2 210.936 9.68613 211.347 10.0601C211.758 10.434 212.282 10.7332 212.918 10.995C213.553 11.2193 214.451 11.5185 215.61 11.8177C217.255 12.2664 218.602 12.7152 219.686 13.1639C220.733 13.6127 221.631 14.2858 222.416 15.1459C223.164 16.006 223.538 17.1652 223.538 18.5863C223.538 20.3438 223.052 21.9145 222.079 23.2233C221.107 24.5321 219.686 25.5792 217.891 26.2897C216.096 27.0002 214.002 27.3742 211.609 27.3742C209.589 27.4116 207.645 27.1124 205.775 26.5889Z" fill="#005CB4"></path>
  <path d="M245.19 7.85351C246.499 8.56402 247.546 9.6111 248.331 10.9199C249.117 12.2662 249.491 13.8368 249.491 15.6692C249.491 17.8755 249.004 19.8201 248.032 21.5776C247.06 23.3352 245.751 24.7189 244.068 25.7285C242.385 26.7382 240.553 27.2243 238.496 27.2243C235.467 27.2243 233.336 26.2521 232.064 24.2701L230.12 34.1051H224.361L229.746 7.0682H235.206L234.794 9.01277C236.44 7.51695 238.459 6.76904 240.89 6.76904C242.46 6.80644 243.881 7.143 245.19 7.85351ZM240.852 21.6524C241.75 21.0915 242.423 20.3436 242.909 19.3339C243.395 18.3616 243.657 17.2024 243.657 15.9309C243.657 14.5847 243.246 13.5002 242.46 12.7149C241.675 11.9296 240.553 11.5183 239.132 11.5183C238.01 11.5183 237.038 11.78 236.14 12.341C235.243 12.9019 234.57 13.6498 234.084 14.6595C233.598 15.6318 233.336 16.791 233.336 18.0625C233.336 19.4087 233.747 20.4932 234.532 21.2785C235.318 22.0638 236.44 22.4751 237.861 22.4751C238.982 22.4751 239.992 22.2134 240.852 21.6524Z" fill="#005CB4"></path>
  <path d="M275.368 7.1058L271.404 26.9628H265.944L266.318 25.0182C264.673 26.514 262.653 27.2619 260.223 27.2619C258.69 27.2619 257.231 26.888 255.922 26.1775C254.613 25.467 253.566 24.4199 252.818 23.111C252.033 21.7648 251.659 20.1942 251.659 18.3618C251.659 16.1555 252.145 14.2109 253.118 12.4533C254.09 10.6958 255.399 9.31214 257.082 8.30246C258.764 7.29278 260.597 6.80664 262.616 6.80664C265.682 6.80664 267.814 7.81632 269.085 9.79828L269.609 7.1058H275.368ZM265.047 21.6526C265.944 21.0917 266.617 20.3438 267.103 19.3341C267.59 18.3618 267.851 17.2026 267.851 15.9311C267.851 14.5849 267.44 13.5004 266.655 12.7151C265.869 11.9298 264.748 11.5185 263.327 11.5185C262.205 11.5185 261.195 11.7802 260.298 12.3412C259.4 12.9021 258.727 13.65 258.241 14.6597C257.755 15.632 257.493 16.7912 257.493 18.0627C257.493 19.4089 257.904 20.4934 258.69 21.2787C259.475 22.064 260.597 22.4753 262.018 22.4753C263.14 22.4753 264.149 22.2136 265.047 21.6526Z" fill="#005CB4"></path>
  <path d="M281.875 26.1401C280.341 25.3922 279.182 24.3451 278.36 23.0363C277.537 21.69 277.125 20.1568 277.125 18.3618C277.125 16.1555 277.649 14.2109 278.659 12.4533C279.706 10.6958 281.127 9.31214 282.959 8.30246C284.792 7.29278 286.886 6.80664 289.204 6.80664C291.336 6.80664 293.131 7.25539 294.701 8.11548C296.235 8.97558 297.394 10.2096 298.142 11.8176L293.28 14.2483C292.42 12.4534 290.924 11.5559 288.868 11.5559C287.746 11.5559 286.736 11.8176 285.839 12.3786C284.941 12.9395 284.231 13.6874 283.744 14.6971C283.258 15.6694 282.997 16.7912 282.997 18.0627C282.997 19.4089 283.408 20.4934 284.231 21.2787C285.053 22.064 286.175 22.4753 287.634 22.4753C289.765 22.4753 291.373 21.5778 292.495 19.8203L296.758 22.4753C295.786 23.9712 294.477 25.1304 292.832 25.9905C291.186 26.8132 289.316 27.2619 287.297 27.2619C285.203 27.2619 283.408 26.888 281.875 26.1401Z" fill="#005CB4"></path>
  <path d="M319.794 18.5864H304.574C304.761 21.2789 306.481 22.6625 309.697 22.6625C310.707 22.6625 311.679 22.5129 312.577 22.1764C313.511 21.8398 314.297 21.3911 315.007 20.7927L317.401 24.6071C316.279 25.5046 315.007 26.1403 313.586 26.589C312.165 27.0378 310.669 27.2622 309.099 27.2622C307.042 27.2622 305.247 26.8882 303.714 26.1777C302.181 25.4672 300.984 24.4201 300.161 23.0739C299.339 21.7276 298.927 20.157 298.927 18.3994C298.927 16.1931 299.413 14.2485 300.423 12.491C301.433 10.7334 302.816 9.34973 304.574 8.34006C306.332 7.33038 308.351 6.84424 310.632 6.84424C312.539 6.84424 314.222 7.2182 315.643 7.92872C317.064 8.63923 318.149 9.6489 318.934 10.9951C319.719 12.3414 320.093 13.8746 320.093 15.5948C320.13 16.4549 320.018 17.4646 319.794 18.5864ZM306.967 12.1918C306.032 12.9023 305.359 13.912 304.985 15.1834H314.858C314.858 13.912 314.446 12.9023 313.661 12.1918C312.876 11.4813 311.791 11.1073 310.445 11.1073C309.061 11.1073 307.902 11.4813 306.967 12.1918Z" fill="#005CB4"></path>
  <path d="M31.0261 62.1519C13.9738 62.1519 0.100098 48.2782 0.100098 31.2258C0.100098 14.1735 13.9738 0.299805 31.0261 0.299805C31.2505 0.299805 31.5123 0.299805 31.7367 0.299805C32.1854 0.299805 32.5594 0.673764 32.522 1.12251C32.522 1.57125 32.148 1.94521 31.6993 1.90782C31.4749 1.90782 31.2505 1.90782 31.0261 1.90782C14.8713 1.90782 1.7455 15.0336 1.7455 31.1885C1.7455 47.3433 14.8713 60.4691 31.0261 60.4691C47.181 60.4691 60.3068 47.3433 60.3068 31.1885C60.3068 30.9267 60.3068 30.6649 60.3068 30.4405C60.3068 29.9918 60.6433 29.6178 61.0921 29.6178C61.5408 29.5805 61.9148 29.9544 61.9148 30.4031C61.9148 30.6649 61.9148 30.9267 61.9148 31.1885C61.9896 48.2782 48.1159 62.1519 31.0261 62.1519Z" fill="#005CB4"></path>
  <path d="M31.0259 58.4869C15.993 58.4869 3.76465 46.2586 3.76465 31.2256C3.76465 16.1927 15.993 3.96436 31.0259 3.96436C37.7571 3.96436 44.2265 6.46984 49.2375 10.9573C49.5741 11.2565 49.6115 11.78 49.3123 12.1166C49.0131 12.4531 48.4896 12.4905 48.1531 12.1914C43.4412 7.92827 37.3458 5.60975 31.0259 5.60975C16.8905 5.60975 5.41005 17.0902 5.41005 31.2256C5.41005 45.3611 16.8905 56.8415 31.0259 56.8415C38.5424 56.8415 45.6476 53.5507 50.5464 47.7918C50.8455 47.4553 51.3691 47.4179 51.7056 47.717C52.0422 48.0162 52.0796 48.5397 51.7804 48.8763C46.5824 54.9718 39.0286 58.4869 31.0259 58.4869Z" fill="#005CB4"></path>
  <path d="M31.0264 54.7853C18.0502 54.7853 7.46729 44.2024 7.46729 31.2261C7.46729 18.2499 18.0502 7.66699 31.0264 7.66699C44.0026 7.66699 54.5856 18.2499 54.5856 31.2261C54.5856 31.3757 54.5856 31.5253 54.5856 31.6749C54.5856 32.1236 54.2116 32.4976 53.7629 32.4976C53.3141 32.4976 52.9402 32.1236 52.9402 31.6749C52.9402 31.5253 52.9402 31.3757 52.9402 31.2261C52.9402 19.1474 43.1052 9.31239 31.0264 9.31239C18.9477 9.31239 9.11268 19.1474 9.11268 31.2261C9.11268 43.3049 18.9477 53.1399 31.0264 53.1399C31.3256 53.1399 31.6247 53.1399 31.9239 53.1399C32.3727 53.1399 32.7466 53.4764 32.784 53.9252C32.784 54.3739 32.4474 54.7479 31.9987 54.7853C31.6995 54.7853 31.363 54.7853 31.0264 54.7853Z" fill="#005CB4"></path>
</svg>
