<?xml version="1.0" encoding="UTF-8"?>
<svg xmlns="http://www.w3.org/2000/svg" width="58" height="58" viewBox="0 0 58 58" fill="none">
  <g clip-path="url(#clip0_224_631)">
    <path d="M18.4909 26.6295C17.0679 26.2198 15.6448 26.012 14.2606 26.012C12.123 26.012 10.3394 26.5005 8.95638 27.0986C10.2897 22.2174 13.4927 13.7951 19.8733 12.8466C20.4642 12.7587 20.9484 12.3314 21.1096 11.7563L22.5042 6.76844C22.6218 6.34662 22.5521 5.89511 22.3115 5.52905C22.0709 5.16299 21.6842 4.91875 21.2509 4.85936C20.78 4.79512 20.3 4.76239 19.8242 4.76239C12.1655 4.76239 4.58065 12.7563 1.38006 24.2023C-0.49872 30.9174 -1.04963 41.0131 3.57823 47.3676C6.16791 50.9233 9.94607 52.8221 14.8079 53.0118C14.8279 53.0124 14.8473 53.013 14.8673 53.013C20.866 53.013 26.1854 48.9731 27.8035 43.1894C28.7702 39.7319 28.3332 36.1059 26.572 32.9768C24.8296 29.8829 21.9599 27.6277 18.4909 26.6295Z" fill="#C2C2C2"></path>
    <path d="M56.0422 32.9774C54.2998 29.8829 51.4301 27.6277 47.961 26.6295C46.538 26.2198 45.115 26.012 43.7314 26.012C41.5938 26.012 39.8096 26.5005 38.4265 27.0986C39.7599 22.2174 42.9629 13.7951 49.3441 12.8466C49.935 12.7587 50.4186 12.3314 50.5804 11.7563L51.9749 6.76844C52.0925 6.34662 52.0228 5.89511 51.7822 5.52905C51.5422 5.16299 51.1556 4.91875 50.7216 4.85936C50.2513 4.79512 49.7713 4.76239 49.295 4.76239C41.6362 4.76239 34.0514 12.7563 30.8502 24.2023C28.972 30.9174 28.4211 41.0131 33.0496 47.3688C35.6387 50.924 39.4174 52.8233 44.2786 53.0124C44.2986 53.013 44.318 53.0136 44.3386 53.0136C50.3368 53.0136 55.6567 48.9737 57.2749 43.1901C58.2404 39.7325 57.8028 36.1059 56.0422 32.9774Z" fill="#C2C2C2"></path>
  </g>
  <defs>
    <clipPath id="clip0_224_631">
      <rect width="57.7773" height="57.7767" fill="white"></rect>
    </clipPath>
  </defs>
</svg>
