<?xml version="1.0" encoding="UTF-8"?>
<svg xmlns="http://www.w3.org/2000/svg" width="160" height="32" viewBox="0 0 160 32" fill="none">
  <path d="M39.7514 11.1012H33.7495L32.6089 13.8685H29.5425L35.3014 0.948334H38.2556L44.0332 13.8685H40.892L39.7514 11.1012ZM38.8166 8.82008L36.7598 3.86518L34.7031 8.82008H38.8166Z" fill="white"></path>
  <path d="M48.0718 3.37904H43.9209V0.948334H55.1769V3.37904H51.0447V13.8685H48.0531V3.37904H48.0718Z" fill="white"></path>
  <path d="M56.8037 0.948334H59.7953V11.4378H66.2648V13.8685H56.8037V0.948334Z" fill="white"></path>
  <path d="M76.4551 11.1012H70.4531L69.3125 13.8685H66.2461L72.005 0.948334H74.9592L80.7368 13.8685H77.5956L76.4551 11.1012ZM75.5015 8.82008L73.4447 3.86518L71.388 8.82008H75.5015Z" fill="white"></path>
  <path d="M93.9374 0.948334V13.8685H91.488L85.0373 6.01542V13.8685H82.083V0.948334H84.5511L90.9831 8.80138V0.948334H93.9374Z" fill="white"></path>
  <path d="M102.837 13.6815C101.903 13.4197 101.155 13.0645 100.594 12.6531L101.809 10.3533C102.407 10.7833 103.062 11.1199 103.81 11.3443C104.539 11.5874 105.306 11.6995 106.072 11.6995C106.895 11.6995 107.549 11.5687 108.035 11.2882C108.522 11.0264 108.746 10.6525 108.746 10.185C108.746 9.81106 108.559 9.5119 108.166 9.30623C107.792 9.10055 107.175 8.87618 106.334 8.65181C105.493 8.40874 104.819 8.16566 104.277 7.94129C103.754 7.71692 103.286 7.38036 102.894 6.91292C102.501 6.46417 102.314 5.84715 102.314 5.09924C102.314 4.22045 102.557 3.45384 103.043 2.79942C103.529 2.1263 104.221 1.62146 105.119 1.26621C106.016 0.91095 107.044 0.723969 108.222 0.723969C109.101 0.723969 109.924 0.817457 110.691 1.00443C111.457 1.19141 112.13 1.47188 112.691 1.82714L111.569 4.10826C111.083 3.7717 110.541 3.52863 109.943 3.36035C109.344 3.19207 108.709 3.11728 108.054 3.11728C107.213 3.11728 106.54 3.26686 106.035 3.56603C105.549 3.86519 105.306 4.23914 105.306 4.70659C105.306 4.98705 105.418 5.23012 105.623 5.4171C105.829 5.60408 106.091 5.75366 106.409 5.88454C106.727 5.99673 107.175 6.14631 107.755 6.29589C108.578 6.52027 109.251 6.74464 109.793 6.96901C110.317 7.19339 110.765 7.52994 111.158 7.95999C111.532 8.39004 111.719 8.96967 111.719 9.68018C111.719 10.559 111.476 11.3443 110.99 11.9987C110.504 12.6531 109.793 13.1767 108.896 13.5319C107.998 13.8872 106.951 14.0742 105.754 14.0742C104.745 14.0928 103.772 13.9433 102.837 13.6815Z" fill="white"></path>
  <path d="M122.545 4.31393C123.199 4.66919 123.723 5.19273 124.116 5.84715C124.508 6.52026 124.695 7.30557 124.695 8.22175C124.695 9.32492 124.452 10.2972 123.966 11.176C123.48 12.0548 122.825 12.7466 121.984 13.2514C121.143 13.7563 120.226 13.9994 119.198 13.9994C117.684 13.9994 116.618 13.5132 115.982 12.5222L115.01 17.4397H112.13L114.823 3.92128H117.553L117.347 4.89356C118.17 4.14565 119.179 3.7717 120.395 3.7717C121.18 3.7904 121.891 3.95867 122.545 4.31393ZM120.376 11.2134C120.825 10.9329 121.161 10.559 121.404 10.0541C121.648 9.56799 121.778 8.98836 121.778 8.35264C121.778 7.67952 121.573 7.13729 121.18 6.74464C120.787 6.35198 120.226 6.14631 119.516 6.14631C118.955 6.14631 118.469 6.27719 118.02 6.55766C117.571 6.83812 117.235 7.21208 116.992 7.71692C116.749 8.20306 116.618 8.78269 116.618 9.41841C116.618 10.0915 116.824 10.6338 117.216 11.0264C117.609 11.4191 118.17 11.6247 118.88 11.6247C119.441 11.6247 119.946 11.4939 120.376 11.2134Z" fill="white"></path>
  <path d="M137.634 3.93997L135.652 13.8685H132.922L133.109 12.8962C132.287 13.6441 131.277 14.018 130.062 14.018C129.295 14.018 128.566 13.8311 127.911 13.4758C127.257 13.1206 126.733 12.597 126.359 11.9426C125.967 11.2695 125.78 10.4842 125.78 9.56799C125.78 8.46482 126.023 7.49254 126.509 6.61374C126.995 5.73495 127.65 5.04314 128.491 4.5383C129.332 4.03346 130.249 3.79039 131.258 3.79039C132.791 3.79039 133.857 4.29523 134.493 5.28621L134.755 3.93997H137.634ZM132.474 11.2134C132.922 10.9329 133.259 10.559 133.502 10.0541C133.745 9.56799 133.876 8.98836 133.876 8.35263C133.876 7.67952 133.67 7.13728 133.278 6.74463C132.885 6.35198 132.324 6.1463 131.613 6.1463C131.053 6.1463 130.548 6.27719 130.099 6.55765C129.65 6.83812 129.314 7.21207 129.071 7.71691C128.828 8.20305 128.697 8.78268 128.697 9.4184C128.697 10.0915 128.902 10.6338 129.295 11.0264C129.688 11.4191 130.249 11.6247 130.959 11.6247C131.52 11.6247 132.025 11.4939 132.474 11.2134Z" fill="white"></path>
  <path d="M140.887 13.4571C140.121 13.0832 139.541 12.5596 139.13 11.9052C138.718 11.2321 138.513 10.4655 138.513 9.56799C138.513 8.46482 138.774 7.49254 139.279 6.61374C139.803 5.73495 140.513 5.04314 141.43 4.5383C142.346 4.03346 143.393 3.79039 144.552 3.79039C145.618 3.79039 146.515 4.01476 147.301 4.44481C148.067 4.87486 148.647 5.49188 149.021 6.29588L146.59 7.51124C146.16 6.61375 145.412 6.165 144.384 6.165C143.823 6.165 143.318 6.29588 142.869 6.57635C142.421 6.85682 142.065 7.23077 141.822 7.73561C141.579 8.22175 141.448 8.78268 141.448 9.4184C141.448 10.0915 141.654 10.6338 142.065 11.0264C142.477 11.4191 143.038 11.6247 143.767 11.6247C144.833 11.6247 145.637 11.176 146.197 10.2972L148.329 11.6247C147.843 12.3726 147.188 12.9523 146.366 13.3823C145.543 13.7937 144.608 14.018 143.598 14.018C142.551 14.018 141.654 13.8311 140.887 13.4571Z" fill="white"></path>
  <path d="M159.847 9.68017H152.237C152.33 11.0264 153.191 11.7182 154.799 11.7182C155.303 11.7182 155.789 11.6434 156.238 11.4752C156.706 11.3069 157.098 11.0825 157.454 10.7833L158.65 12.6905C158.089 13.1392 157.454 13.4571 156.743 13.6815C156.033 13.9059 155.285 14.018 154.499 14.018C153.471 14.018 152.573 13.8311 151.807 13.4758C151.04 13.1206 150.442 12.597 150.031 11.9239C149.619 11.2508 149.414 10.4655 149.414 9.58668C149.414 8.48352 149.657 7.51123 150.161 6.63244C150.666 5.75365 151.358 5.06183 152.237 4.55699C153.116 4.05215 154.125 3.80908 155.266 3.80908C156.22 3.80908 157.061 3.99606 157.771 4.35132C158.482 4.70658 159.024 5.21141 159.417 5.88453C159.81 6.55765 159.996 7.32426 159.996 8.18435C160.015 8.6144 159.959 9.11924 159.847 9.68017ZM153.434 6.48286C152.966 6.83812 152.63 7.34296 152.443 7.97868H157.379C157.379 7.34296 157.173 6.83812 156.78 6.48286C156.388 6.1276 155.846 5.94063 155.172 5.94063C154.481 5.94063 153.901 6.1276 153.434 6.48286Z" fill="white"></path>
  <path d="M15.463 31.463C6.93686 31.463 0 24.5262 0 16C0 7.47385 6.93686 0.536987 15.463 0.536987C15.5752 0.536987 15.7061 0.536987 15.8183 0.536987C16.0426 0.536987 16.2296 0.723967 16.2109 0.94834C16.2109 1.17271 16.024 1.35969 15.7996 1.34099C15.6874 1.34099 15.5752 1.34099 15.463 1.34099C7.3856 1.34099 0.8227 7.90389 0.8227 15.9813C0.8227 24.0587 7.3856 30.6216 15.463 30.6216C23.5404 30.6216 30.1033 24.0587 30.1033 15.9813C30.1033 15.8504 30.1033 15.7195 30.1033 15.6074C30.1033 15.383 30.2716 15.196 30.496 15.196C30.7204 15.1773 30.9073 15.3643 30.9073 15.5887C30.9073 15.7195 30.9073 15.8504 30.9073 15.9813C30.9447 24.5262 24.0079 31.463 15.463 31.463Z" fill="white"></path>
  <path d="M15.4632 29.6307C7.94668 29.6307 1.83252 23.5165 1.83252 16C1.83252 8.48352 7.94668 2.36937 15.4632 2.36937C18.8288 2.36937 22.0635 3.62211 24.569 5.86584C24.7372 6.01542 24.7559 6.27719 24.6063 6.44547C24.4568 6.61375 24.195 6.63245 24.0267 6.48287C21.6708 4.35133 18.6231 3.19207 15.4632 3.19207C8.39542 3.19207 2.65522 8.93227 2.65522 16C2.65522 23.0678 8.39542 28.808 15.4632 28.808C19.2214 28.808 22.774 27.1626 25.2234 24.2831C25.373 24.1148 25.6347 24.0961 25.803 24.2457C25.9713 24.3953 25.99 24.6571 25.8404 24.8253C23.2414 27.8731 19.4645 29.6307 15.4632 29.6307Z" fill="white"></path>
  <path d="M15.4632 27.7796C8.97505 27.7796 3.68359 22.4881 3.68359 16C3.68359 9.5119 8.97505 4.22044 15.4632 4.22044C21.9513 4.22044 27.2427 9.5119 27.2427 16C27.2427 16.0748 27.2427 16.1496 27.2427 16.2244C27.2427 16.4488 27.0558 16.6357 26.8314 16.6357C26.607 16.6357 26.42 16.4488 26.42 16.2244C26.42 16.1496 26.42 16.0748 26.42 16C26.42 9.96065 21.5025 5.04314 15.4632 5.04314C9.4238 5.04314 4.50629 9.96065 4.50629 16C4.50629 22.0394 9.4238 26.9569 15.4632 26.9569C15.6127 26.9569 15.7623 26.9569 15.9119 26.9569C16.1363 26.9569 16.3233 27.1252 16.342 27.3495C16.342 27.5739 16.1737 27.7609 15.9493 27.7796C15.7997 27.7796 15.6314 27.7796 15.4632 27.7796Z" fill="white"></path>
</svg>
