<?xml version="1.0" encoding="UTF-8"?>
<svg xmlns="http://www.w3.org/2000/svg" width="104" height="105" viewBox="0 0 104 105" fill="none">
  <path d="M58.2078 90.9077V97.4823C77.9738 94.6585 93.6674 78.9222 96.4485 59.1127H89.8739C87.2011 75.3436 74.3971 88.1921 58.2078 90.9077Z" fill="white"></path>
  <path d="M45.2526 14.6633V8.08875C25.55 10.9126 9.94311 26.4976 7.05615 46.1562H13.6307C16.4116 30.0749 29.152 17.379 45.2526 14.6633Z" fill="white"></path>
  <path d="M13.5865 59.1104H7.01196C9.79288 78.9207 25.4637 94.6334 45.2527 97.48V90.9054C29.0428 88.168 16.2599 75.3422 13.5865 59.1104Z" fill="white" fill-opacity="0.2"></path>
  <path d="M89.8316 46.1557H96.4061C93.5176 26.4975 77.8898 10.9117 58.2097 8.08826V14.6628C74.312 17.3581 87.0524 30.0757 89.8316 46.1557Z" fill="white" fill-opacity="0.2"></path>
  <path d="M75.5393 46.1557H82.2215C79.6346 34.2139 70.1715 24.7941 58.2078 22.2498V28.9319C66.5942 31.1957 73.2117 37.792 75.5393 46.1551V46.1557Z" fill="white"></path>
  <path d="M45.2526 22.2511C33.289 24.7945 23.8487 34.2147 21.26 46.1571H27.921C30.2494 37.7932 36.8667 31.2186 45.2518 28.9338L45.2526 22.2511Z" fill="white" fill-opacity="0.2"></path>
  <path d="M82.2865 59.1104H75.6255C73.3617 67.6036 66.6798 74.3075 58.2083 76.614V83.2962C70.2802 80.731 79.7854 71.2033 82.2874 59.1111L82.2865 59.1104Z" fill="white" fill-opacity="0.2"></path>
  <path d="M27.837 59.1106H21.1978C23.6982 71.1818 33.2042 80.7321 45.2538 83.2957V76.6135C36.7816 74.307 30.0996 67.6031 27.8366 59.1099L27.837 59.1106Z" fill="white"></path>
  <path d="M51.7428 69.9985C61.2276 69.9985 68.9442 62.281 68.9442 52.7752C68.9442 43.2904 61.2268 35.552 51.7428 35.552C42.2368 35.552 34.5195 43.2904 34.5195 52.7752C34.5195 62.2812 42.237 69.9985 51.7428 69.9985ZM51.7428 42.0392C57.6491 42.0392 62.4778 46.8681 62.4778 52.7743C62.4778 58.7024 57.6489 63.5093 51.7428 63.5093C45.8147 63.5093 41.0077 58.7022 41.0077 52.7743C41.0077 46.8679 45.8149 42.0392 51.7428 42.0392Z" fill="white"></path>
  <path d="M55.8961 52.7791C55.8961 55.0767 54.0338 56.9388 51.7363 56.9388C49.4395 56.9388 47.5774 55.0766 47.5774 52.7791C47.5774 50.4822 49.4396 48.6201 51.7363 48.6201C54.034 48.6201 55.8961 50.4824 55.8961 52.7791Z" fill="white"></path>
  <path d="M50.1318 31.5148H53.3414C54.2458 31.5148 54.9788 30.7818 54.9788 29.8774V2.53784C54.9788 1.63341 54.2458 0.900391 53.3414 0.900391H50.1318C49.2274 0.900391 48.4944 1.63341 48.4944 2.53784V29.8774C48.4944 30.7818 49.2274 31.5148 50.1318 31.5148Z" fill="white"></path>
  <path d="M53.3399 73.7546H50.1304C49.2259 73.7546 48.4929 74.4877 48.4929 75.3921V102.732C48.4929 103.636 49.2259 104.369 50.1304 104.369H53.3399C54.2443 104.369 54.9773 103.636 54.9773 102.732V75.3921C54.9773 74.4877 54.2443 73.7546 53.3399 73.7546Z" fill="white"></path>
  <path d="M101.831 49.395H74.4919C73.5875 49.395 72.8545 50.128 72.8545 51.0325V54.242C72.8545 55.1464 73.5875 55.8794 74.4919 55.8794H101.831C102.736 55.8794 103.469 55.1464 103.469 54.242L103.47 51.0325C103.47 50.128 102.737 49.395 101.832 49.395H101.831Z" fill="white"></path>
  <path d="M30.6142 54.241V51.0315C30.6142 50.1271 29.8812 49.394 28.9767 49.394H1.6372C0.732776 49.394 -0.000244141 50.1271 -0.000244141 51.0315V54.241C-0.000244141 55.1454 0.732776 55.8785 1.6372 55.8785H28.9767C29.8812 55.8785 30.6142 55.1454 30.6142 54.241Z" fill="white"></path>
</svg>
