<?xml version="1.0" encoding="UTF-8"?>
<svg xmlns="http://www.w3.org/2000/svg" width="105" height="105" viewBox="0 0 105 105" fill="none">
  <path d="M28.8823 70.5222V87.027C28.8823 89.9452 30.0413 92.7443 32.1051 94.8074C34.1682 96.8713 36.9673 98.0302 39.8855 98.0302H55.7409C56.642 100.766 58.8248 102.889 61.5856 103.712C64.3464 104.536 67.3351 103.956 69.5884 102.16C71.8411 100.365 73.0729 97.5804 72.8857 94.706C72.6991 91.8308 71.1173 89.2297 68.6504 87.7408C66.1843 86.2518 63.1457 86.0645 60.5147 87.238C57.8836 88.4123 55.994 90.7993 55.4544 93.6291H39.8853C38.1346 93.6291 36.4553 92.9337 35.2172 91.695C33.9792 90.4569 33.2831 88.7775 33.2831 87.0268V70.5221C35.8688 68.8826 38.4654 67.2209 40.9851 65.3282L40.9859 65.3289C41.0542 68.201 42.2438 70.9319 44.3 72.9388C46.3562 74.9451 49.1154 76.0688 51.989 76.0673H87.6512C88.5522 78.8043 90.735 80.9264 93.4958 81.7492C96.2566 82.5728 99.2454 81.9933 101.498 80.1981C103.751 78.4021 104.983 75.6182 104.796 72.7432C104.609 69.8688 103.027 67.267 100.561 65.7788C98.094 64.2898 95.0553 64.1018 92.4252 65.2761C89.794 66.4496 87.9044 68.8366 87.3649 71.6664H51.9896C50.2381 71.6664 48.5588 70.971 47.3207 69.733C46.0827 68.495 45.3874 66.8156 45.3874 65.0641V61.763V61.7637C47.7476 59.6476 49.8727 57.2829 51.7256 54.7103C52.8047 53.1891 53.7826 51.5972 54.6522 49.9463H87.6618C88.5629 52.6826 90.7457 54.8048 93.5065 55.6283C96.2673 56.4518 99.256 55.8723 101.509 54.0763C103.762 52.2811 104.993 49.4965 104.807 46.6221C104.619 43.7469 103.038 41.1458 100.571 39.6569C98.1054 38.1679 95.0668 37.9806 92.4358 39.1541C89.8049 40.3277 87.9151 42.7146 87.3755 45.5444H56.71C59.351 38.6437 60.9131 31.3774 61.342 24.0018H87.6514C88.5525 26.738 90.7352 28.8603 93.496 29.6829C96.2569 30.5065 99.2456 29.927 101.498 28.1318C103.751 26.3358 104.983 23.5519 104.796 20.6769C104.609 17.8026 103.027 15.2007 100.561 13.7125C98.0942 12.2235 95.0556 12.0355 92.4254 13.2098C89.7943 14.3833 87.9047 16.7703 87.3651 19.6001H61.6511C61.7171 18.0374 61.7608 16.4426 61.7723 14.7915H61.7716C53.1109 11.6308 44.8447 7.48086 37.1362 2.4245C35.3395 1.24099 33.2356 0.61084 31.0843 0.61084C28.9329 0.61084 26.8292 1.24097 25.0323 2.4245C17.2857 7.48852 8.97808 11.6393 0.275146 14.7915C0.363412 32.2756 3.65293 45.2919 10.3213 54.6112C15.5918 61.9834 22.3261 66.3628 28.8838 70.522L28.8823 70.5222ZM64.0925 90.8349C65.2599 90.8349 66.3798 91.2992 67.2049 92.1243C68.0299 92.9494 68.4943 94.0692 68.4943 95.2367C68.4943 96.4041 68.0299 97.5232 67.2049 98.349C66.3798 99.1741 65.26 99.6377 64.0925 99.6377C62.9251 99.6377 61.806 99.1741 60.9802 98.349C60.1551 97.5231 59.6915 96.4041 59.6915 95.2367C59.6915 94.0693 60.1551 92.9494 60.9802 92.1243C61.806 91.2992 62.9251 90.8349 64.0925 90.8349ZM96.0025 68.8285C97.1692 68.8285 98.289 69.2929 99.1141 70.118C99.9399 70.943 100.404 72.0629 100.404 73.2303C100.404 74.3977 99.9399 75.5168 99.1141 76.3426C98.289 77.1677 97.1692 77.6313 96.0025 77.6313C94.8351 77.6313 93.7153 77.1677 92.8902 76.3426C92.0644 75.5168 91.6008 74.3977 91.6008 73.2303C91.6008 72.0629 92.0644 70.943 92.8902 70.118C93.7153 69.2929 94.8351 68.8285 96.0025 68.8285ZM96.0018 42.696H96.0025C97.1692 42.696 98.289 43.1603 99.1141 43.9854C99.9399 44.8105 100.404 45.9303 100.404 47.0977C100.404 48.2651 99.9399 49.3842 99.1141 50.2101C98.289 51.0351 97.1692 51.4987 96.0025 51.4987C94.8351 51.4987 93.7153 51.0351 92.8902 50.2101C92.0644 49.3842 91.6008 48.2652 91.6008 47.0977C91.6038 45.9319 92.069 44.8159 92.894 43.9923C93.7191 43.1695 94.8366 42.7074 96.0024 42.7074L96.0018 42.696ZM96.0018 16.8385L96.0025 16.8392C97.1692 16.8392 98.289 17.3028 99.1141 18.1279C99.9399 18.9538 100.404 20.0728 100.404 21.2402C100.404 22.4076 99.9399 23.5275 99.1141 24.3526C98.289 25.1777 97.1692 25.642 96.0025 25.642C94.8351 25.642 93.7153 25.1777 92.8902 24.3526C92.0644 23.5275 91.6008 22.4077 91.6008 21.2402C91.6038 20.0751 92.069 18.9585 92.894 18.1356C93.7191 17.312 94.8366 16.85 96.0024 16.85L96.0018 16.8385ZM27.3753 6.11076C28.4575 5.39158 29.7286 5.00783 31.0287 5.00783C32.3282 5.00783 33.5992 5.39158 34.6814 6.11076C41.8009 10.7881 49.3909 14.7086 57.3264 17.8069C56.9411 32.7935 53.8932 44.0279 48.1383 52.0603C46.4098 54.4757 44.4173 56.6899 42.197 58.6626C41.8831 58.8199 41.6114 59.0502 41.4041 59.3334C38.123 62.0074 34.6552 64.4459 31.0287 66.6287C24.6469 62.5793 18.6393 58.6296 13.9075 52.0167C8.16428 43.9845 5.1048 32.7611 4.73109 17.7634H4.73032C12.6642 14.6787 20.2535 10.7736 27.3753 6.11076Z" fill="white"></path>
  <path d="M25.8022 43.9509C26.2059 44.4046 26.7793 44.6717 27.3864 44.6878H27.4524C28.0357 44.6855 28.5929 44.4521 29.0043 44.0384L43.9903 29.0741C44.8622 28.2145 44.8721 26.8106 44.0125 25.9388C43.1529 25.067 41.7484 25.0569 40.8764 25.9165L27.5515 39.2852L21.2463 32.1549L21.2471 32.1557C20.442 31.2439 19.0504 31.1579 18.1387 31.9631C17.2269 32.7682 17.1409 34.1598 17.946 35.0715L25.8022 43.9509Z" fill="white"></path>
</svg>
