<svg xmlns="http://www.w3.org/2000/svg" width="53" height="45" viewBox="0 0 53 45" fill="none"><g opacity="0.2"><path d="M35.9641 20.0185C37.2668 19.6434 38.5695 19.4531 39.8367 19.4531C41.8481 19.4531 43.8588 17.5819 43.0617 15.7352C41.4101 11.9089 38.7562 8.00393 34.6985 7.40075C34.1576 7.3203 33.7143 6.92915 33.5667 6.40263L32.29 1.83646C32.1824 1.4503 32.2462 1.03696 32.4665 0.701848C32.6867 0.366737 33.0407 0.143144 33.4374 0.0887712C33.8685 0.0299602 34.3079 0 34.7434 0C41.7547 0 48.6983 7.31808 51.6283 17.7964C53.3482 23.9438 53.8526 33.186 49.616 39.0033C47.2452 42.2584 43.7865 43.9967 39.3357 44.1704C39.3174 44.1709 39.2996 44.1715 39.2813 44.1715C33.7897 44.1715 28.9201 40.473 27.4387 35.1784C26.5537 32.0131 26.9538 28.6936 28.5661 25.8291C30.1612 22.9968 32.7883 20.9323 35.9641 20.0185Z" fill="url(#paint0_linear_33_376)"></path><path d="M36.0595 20.35L36.0594 20.35C32.9692 21.2392 30.4165 23.2463 28.8667 25.9984C27.2993 28.7832 26.9106 32.0084 27.7709 35.0855C29.2107 40.2314 33.9447 43.8265 39.2813 43.8265C39.2931 43.8265 39.3051 43.8262 39.3235 43.8256C43.681 43.6553 47.0359 41.9599 49.3371 38.8002C51.4019 35.9651 52.3247 32.2742 52.5113 28.5066C52.6977 24.7421 52.1474 20.932 51.2961 17.8894L51.2961 17.8893C49.8438 12.6955 47.4002 8.29868 44.4661 5.20626C41.5299 2.11155 38.1257 0.344961 34.7434 0.344961C34.3236 0.344961 33.8997 0.373855 33.484 0.430566C33.1864 0.471429 32.9204 0.639304 32.7547 0.891322C32.5894 1.14281 32.5413 1.45324 32.6223 1.74383L33.8988 6.30953C34.0097 6.70521 34.3429 6.9991 34.7492 7.05954C36.8802 7.37631 38.6258 8.55874 40.0388 10.1285C41.4502 11.6965 42.5444 13.6663 43.3784 15.5985C43.8458 16.6815 43.4746 17.7534 42.7541 18.5225C42.0378 19.2871 40.9426 19.7981 39.8367 19.7981C38.604 19.7981 37.3334 19.9832 36.0595 20.35Z" stroke="white" stroke-opacity="0.5" stroke-width="0.689921"></path><path d="M1.58806 25.8297C3.18317 22.9968 5.81025 20.9323 8.98604 20.0185C10.2888 19.6434 11.5915 19.4531 12.8581 19.4531C14.8697 19.4531 16.8807 17.5816 16.0834 15.7347C14.4318 11.9086 11.7779 8.00391 7.71994 7.40075C7.17899 7.3203 6.73624 6.92915 6.58811 6.40263L5.31146 1.83646C5.20383 1.4503 5.26763 1.03696 5.4879 0.701848C5.70761 0.366737 6.06158 0.143144 6.45883 0.0887712C6.88937 0.0299602 7.32879 0 7.76488 0C14.7761 0 21.7197 7.31808 24.6503 17.7964C26.3697 23.9438 26.874 33.186 22.6368 39.0044C20.2666 42.259 16.8073 43.9978 12.3571 44.1709C12.3388 44.1715 12.3211 44.172 12.3022 44.172C6.81114 44.172 1.94093 40.4736 0.459562 35.1789C-0.424267 32.0137 -0.0236893 28.6936 1.58806 25.8297Z" fill="url(#paint1_linear_33_376)"></path><path d="M9.08142 20.35L9.08148 20.35C10.3554 19.9832 11.626 19.7981 12.8581 19.7981C13.9642 19.7981 15.0595 19.2871 15.7758 18.5223C16.4964 17.7531 16.8677 16.6811 16.4001 15.598C15.5661 13.6659 14.4719 11.6962 13.0604 10.1283C11.6474 8.55863 9.90171 7.37629 7.77066 7.05954C7.36471 6.99915 7.03185 6.70557 6.92028 6.30958C6.92024 6.30945 6.92021 6.30933 6.92017 6.3092L5.64376 1.74383C5.56276 1.45324 5.61086 1.14281 5.77616 0.891321L5.77638 0.890988C5.94137 0.639339 6.20716 0.471422 6.50552 0.430558L9.08142 20.35ZM9.08142 20.35C5.99116 21.2392 3.43855 23.2463 1.88865 25.9989C0.321808 28.7831 -0.0674114 32.0089 0.791765 35.086C2.23153 40.2319 6.96614 43.8271 12.3022 43.8271C12.3083 43.8271 12.3143 43.827 12.321 43.8268C12.328 43.8267 12.3358 43.8264 12.3452 43.8262C16.702 43.6563 20.0574 41.9604 22.358 38.8014C24.4231 35.9656 25.346 32.2744 25.5327 28.5067C25.7193 24.7421 25.1691 20.932 24.3181 17.8893L24.6503 17.7964M9.08142 20.35L24.6503 17.7964M24.6503 17.7964L24.3181 17.8893C22.8655 12.6955 20.4217 8.29869 17.4876 5.20627C14.5513 2.11155 11.1472 0.344961 7.76488 0.344961C7.34446 0.344961 6.92067 0.373854 6.50561 0.430545L24.6503 17.7964Z" stroke="white" stroke-opacity="0.5" stroke-width="0.689921"></path></g><defs><linearGradient id="paint0_linear_33_376" x1="39.9356" y1="0" x2="39.9356" y2="44.1715" gradientUnits="userSpaceOnUse"><stop stop-color="#01B0B3"></stop><stop offset="1" stop-color="#03298B"></stop></linearGradient><linearGradient id="paint1_linear_33_376" x1="12.9572" y1="0" x2="12.9572" y2="44.172" gradientUnits="userSpaceOnUse"><stop stop-color="#01B0B3"></stop><stop offset="1" stop-color="#03298B"></stop></linearGradient></defs></svg>