<svg xmlns="http://www.w3.org/2000/svg" width="314" height="175" viewBox="0 0 314 175" fill="none"><rect width="314" height="175" rx="10" fill="#005CB4"></rect><path d="M185.424 27.0625C184.904 27.0625 184.384 27.2607 183.988 27.6576L176.39 35.2589L194.322 53.191L201.916 45.5937C202.709 44.8006 202.713 43.5152 201.92 42.7214L186.86 27.6576C186.463 27.2607 185.944 27.0625 185.424 27.0625ZM173.518 38.1352L167.357 44.2964L185.289 62.2325L191.45 56.0634L173.518 38.1352ZM164.484 47.1687L156.887 54.77C156.095 55.5638 156.094 56.8493 156.887 57.6423L162.981 63.7401L156.82 69.9052L143.2 56.2776C142.406 55.4853 141.121 55.4861 140.328 56.2776L134.234 62.3713L132.659 60.7963C131.861 59.9754 130.544 59.9756 129.747 60.7963C128.965 61.6008 128.982 62.8864 129.786 63.6687L131.361 65.2438L125.268 71.3375C124.476 72.1313 124.476 73.4168 125.268 74.2098L138.891 87.8374L132.726 94.0026L126.632 87.9088C125.839 87.1158 124.554 87.1158 123.76 87.9088L116.167 95.5101L134.095 113.442L141.692 105.841C142.484 105.048 142.484 103.766 141.692 102.973L135.599 96.8748L141.764 90.7097L155.379 104.333C156.173 105.127 157.458 105.127 158.252 104.333L164.346 98.2396L167.793 101.687C166.665 104.031 167 106.924 168.932 108.856C171.371 111.297 175.387 111.297 177.826 108.856C180.266 106.416 180.27 102.398 177.83 99.9574C175.899 98.0259 173.009 97.6878 170.666 98.8148L167.218 95.3673L173.312 89.2735C174.105 88.4805 174.108 87.199 173.316 86.4051L159.688 72.7736L165.853 66.6084L171.947 72.7061C172.741 73.4984 174.026 73.4976 174.819 72.7061L182.417 65.1048L164.484 47.1687ZM113.291 98.3824L107.129 104.548L125.065 122.48L131.223 116.315L113.291 98.3824ZM203.36 102.251C202.777 102.189 202.162 102.376 201.686 102.881C201.323 103.265 201.123 103.773 201.13 104.302C201.132 119.927 188.941 132.124 173.324 132.124C170.562 132.047 170.562 136.242 173.324 136.187C191.077 136.187 205.196 122.062 205.193 104.302C205.209 103.144 204.331 102.353 203.36 102.251ZM216.107 102.251C215.524 102.189 214.909 102.376 214.433 102.881C214.07 103.265 213.873 103.773 213.881 104.302C213.883 126.587 195.595 144.875 173.319 144.875C170.61 144.875 170.61 148.937 173.319 148.937C197.82 148.937 217.942 128.81 217.94 104.302C217.956 103.144 217.078 102.353 216.107 102.251ZM190.744 102.457C190.161 102.395 189.546 102.582 189.07 103.088C188.707 103.472 188.507 103.98 188.514 104.508C188.518 112.216 181.186 119.549 173.486 119.548C170.726 119.471 170.725 123.663 173.486 123.61C183.653 123.61 192.582 114.681 192.577 104.508C192.593 103.351 191.715 102.559 190.744 102.457ZM104.257 107.42L96.6597 115.021C95.866 115.814 95.866 117.1 96.6597 117.894L111.716 132.957C112.509 133.751 113.798 133.751 114.592 132.957L122.189 125.352L104.257 107.42Z" fill="white"></path></svg>