<svg xmlns="http://www.w3.org/2000/svg" width="314" height="175" viewBox="0 0 314 175" fill="none"><rect width="314" height="175" rx="10" fill="#005CB4"></rect><path d="M206.59 38.4107C199.134 30.9433 189.21 26.4532 178.679 25.7826C168.148 25.1121 157.734 28.3073 149.391 34.7688C141.049 41.2303 135.35 50.514 133.365 60.878C131.381 71.242 133.246 81.9741 138.611 91.0607L133.817 95.8545L149.147 111.184L153.94 106.39C163.027 111.755 173.759 113.62 184.123 111.636C194.487 109.651 203.771 103.953 210.232 95.6098C216.694 87.267 219.889 76.8532 219.218 66.3221C218.548 55.7911 214.058 45.8666 206.59 38.4107ZM198.953 92.0357C194.403 96.5696 188.612 99.6538 182.311 100.899C176.009 102.144 169.481 101.493 163.548 99.0302C157.616 96.567 152.547 92.4014 148.981 87.0592C145.415 81.717 143.512 75.438 143.512 69.0149C143.512 62.5918 145.415 56.3127 148.981 50.9706C152.547 45.6284 157.616 41.4628 163.548 38.9996C169.481 36.5365 176.009 35.8863 182.311 37.1311C188.612 38.376 194.403 41.4601 198.953 45.9941C201.983 49.0134 204.387 52.6012 206.027 56.5516C207.667 60.5021 208.512 64.7374 208.512 69.0149C208.512 73.2924 207.667 77.5277 206.027 81.4782C204.387 85.4286 201.983 89.0164 198.953 92.0357Z" fill="white"></path><path d="M188.688 74.9733C185.202 78.1249 180.671 79.87 175.972 79.87C171.273 79.87 166.742 78.1249 163.256 74.9733C159.244 77.095 155.834 80.1976 153.344 83.9921C155.812 87.7298 159.168 90.7971 163.113 92.9193C167.057 95.0414 171.466 96.1523 175.945 96.1523C180.424 96.1523 184.833 95.0414 188.777 92.9193C192.722 90.7971 196.078 87.7298 198.546 83.9921C196.078 80.1982 192.686 77.0947 188.688 74.9733Z" fill="white"></path><path d="M129.985 107.346L133.796 103.535L141.456 111.195L137.645 115.006L129.985 107.346Z" fill="white"></path><path d="M97.8785 131.794C90.566 139.107 97.0119 151.403 106.22 150.265C111.637 149.94 111.312 149.019 137.664 122.667L122.335 107.338L97.8785 131.794Z" fill="white"></path><path d="M169.19 72.6444C170.989 73.6831 173.003 74.294 175.076 74.43C177.148 74.5659 179.224 74.2232 181.144 73.4283C183.063 72.6335 184.773 71.4078 186.143 69.8461C187.512 68.2845 188.504 66.4286 189.042 64.4222C189.58 62.4158 189.648 60.3126 189.243 58.2754C188.838 56.2381 187.969 54.3214 186.705 52.6735C185.44 51.0256 183.814 49.6906 181.951 48.772C180.088 47.8533 178.038 47.3756 175.961 47.3757C172.98 47.3758 170.083 48.3595 167.718 50.1742C165.353 51.9889 163.653 54.5332 162.882 57.4125C162.11 60.2918 162.31 63.3452 163.451 66.0992C164.591 68.8532 166.609 71.1539 169.19 72.6444Z" fill="white"></path></svg>