<?xml version="1.0" encoding="UTF-8"?>
<svg xmlns="http://www.w3.org/2000/svg" width="86" height="104" viewBox="0 0 86 104" fill="none">
  <path d="M85.2208 20.1097C85.3371 19.3618 84.901 18.6383 84.1855 18.3914C70.6749 12.4639 57.1987 6.47494 43.7579 0.423272C43.1421 0.112815 42.4165 0.112815 41.8013 0.423272C28.2698 6.44037 14.7461 12.4401 1.22771 18.4225C0.549034 18.6029 0.107183 19.2571 0.19237 19.9545C0.285507 29.1664 0.182262 38.3882 0.285507 47.5994C0.346153 60.2912 4.48241 72.627 12.085 82.7908C19.4341 92.6856 28.8321 99.7756 40.7445 103.357L40.7452 103.356C42.0282 103.76 43.4051 103.76 44.6887 103.356C55.6746 100.069 65.3304 93.3737 72.2615 84.2391C80.6901 73.6534 85.2544 60.5089 85.1995 46.9776V35.0331C85.1584 30.065 85.1584 25.0863 85.2205 20.1081L85.2208 20.1097ZM77.9129 37.9328V47.8276V47.8283C77.9656 59.0415 74.1895 69.9375 67.2109 78.7132C61.4683 86.2984 53.4601 91.8591 44.3476 94.5911C43.2834 94.9268 42.1411 94.9268 41.0771 94.5911C31.4906 91.6815 23.1378 85.6803 17.3229 77.5233C11.0156 69.0984 7.58334 58.8685 7.53195 48.3443C7.44893 40.7057 7.53195 33.0671 7.53195 25.4293V25.43C7.46337 24.8604 7.81859 24.3253 8.37019 24.1672C19.5414 19.2194 30.7271 14.2406 41.9258 9.23142C42.437 8.97295 43.0399 8.97295 43.551 9.23142C54.7295 14.2406 65.9005 19.2057 77.066 24.1253C77.6573 24.3332 78.0154 24.9346 77.9144 25.5541V37.9326L77.9129 37.9328Z" fill="white"></path>
  <path d="M71.7031 28.4623L66.4449 26.1331L17.5596 67.5347C18.6288 69.6177 19.8677 71.6081 21.2648 73.4867C22.1774 74.7155 23.1514 75.8967 24.1838 77.0258L72.4482 36.162V29.662C72.529 29.1328 72.2128 28.623 71.7031 28.4613L71.7031 28.4623Z" fill="white"></path>
  <g opacity="0.2">
    <path d="M41.3242 87.9252C42.223 88.2097 43.1883 88.2097 44.0872 87.9252C51.7916 85.6285 58.5637 80.937 63.4221 74.5316C69.3157 67.127 72.5068 57.9331 72.4685 48.4689V44.7015L28.9968 81.5379H28.9961C32.6673 84.4229 36.8491 86.5896 41.324 87.9239L41.3242 87.9252Z" fill="white"></path>
    <path d="M43.426 15.8969C42.9964 15.681 42.4896 15.681 42.0593 15.8969C32.6062 20.106 23.168 24.3051 13.7417 28.4933C13.3013 28.6414 13.0139 29.0644 13.0378 29.5287V48.8729C13.0507 50.9869 13.224 53.0979 13.5554 55.1866C13.8796 57.2399 14.3532 59.2673 14.9734 61.2512L59.8424 23.2024L43.426 15.8969Z" fill="white"></path>
  </g>
</svg>
