<?xml version="1.0" encoding="UTF-8"?>
<svg xmlns="http://www.w3.org/2000/svg" width="138" height="99" viewBox="0 0 138 99" fill="none">
  <path d="M134.646 39.0852L134.66 39.096L134.674 39.1066L135.029 39.3748L134.882 39.8105C134.091 41.8233 132.859 43.6493 131.288 45.1344L131.275 45.1466L131.263 45.1591C128.87 47.5175 124.473 50.4189 117.162 50.4189H117.16H117.157H117.155H117.153H117.15H117.148H117.145H117.143H117.14H117.138H117.135H117.133H117.13H117.128H117.125H117.123H117.12H117.118H117.115H117.113H117.11H117.108H117.106H117.103H117.101H117.098H117.096H117.093H117.091H117.088H117.086H117.083H117.081H117.078H117.076H117.073H117.071H117.068H117.066H117.063H117.061H117.059H117.056H117.054H117.051H117.049H117.046H117.044H117.041H117.039H117.036H117.034H117.031H117.029H117.026H117.024H117.021H117.019H117.016H117.014H117.012H117.009H117.007H117.004H117.002H116.999H116.997H116.994H116.992H116.989H116.987H116.984H116.982H116.979H116.977H116.974H116.972H116.97H116.967H116.965H116.962H116.96H116.957H116.955H116.952H116.95H116.947H116.945H116.942H116.94H116.937H116.935H116.932H116.93H116.927H116.925H116.923H116.92H116.918H116.915H116.913H116.91H116.908H116.905H116.903H116.9H116.898H116.895H116.893H116.89H116.888H116.885H116.883H116.88H116.878H116.876H116.873H116.871H116.868H116.866H116.863H116.861H116.858H116.856H116.853H116.851H116.848H116.846H116.843H116.841H116.838H116.836H116.833H116.831H116.829H116.826H116.824H116.821H116.819H116.816H116.814H116.811H116.809H116.806H116.804H116.801H116.799H116.796H116.794H116.791H116.789H116.787H116.784H116.782H116.779H116.777H116.774H116.772H116.769H116.767H116.764H116.762H116.759H116.757H116.754H116.752H116.749H116.747H116.744H116.742H116.74H116.737H116.735H116.732H116.73H116.727H116.725H116.722H116.72H116.717H116.715H116.712H116.71H116.707H116.705H116.702H116.7H116.697H116.695H116.693H116.69H116.688H116.685H116.683H116.68H116.678H116.675H116.673H116.67H116.668H116.665H116.663H116.66H116.658H116.655H116.653H116.651H116.648H116.646H116.643H116.641H116.638H116.636H116.633H116.631H116.628H116.626H116.623H116.621H116.618H116.616H116.613H116.611H116.608H116.606H116.604H116.601H116.599H116.596H116.594H116.591H116.589H116.586H116.584H116.581H116.579H116.576H116.574H116.571H116.569H116.566H116.564H116.561H116.559H116.557H116.554H116.552H116.549H116.547H116.544H116.542H116.539H116.537H116.534H116.532H116.529H116.527H116.524H116.522H116.519H116.517H116.515H116.512H116.51H116.507H116.505H116.502H116.5H116.497H116.495H116.492H116.49H116.487H116.485H116.482H116.48H116.477H116.475H116.472H116.47H116.468H116.465H116.463H116.46H116.458H116.455H116.453H116.45H116.448H116.445H116.443H116.44H116.438H116.435H116.433H116.43H116.428H116.425H116.423H116.421H116.418H116.416H116.413H116.411H116.408H116.406H116.403H116.401H116.398H116.396H116.393H116.391H116.388H116.386H116.383H116.381H116.379H116.376H116.374H116.371H116.369H116.366H116.364H116.361H116.359H116.356H116.354H116.351H116.349H116.346H116.344H116.341H116.339H116.336H116.334H116.332H116.329H116.327H116.324H116.322H116.319H116.317H116.314H116.312H116.309H116.307H116.304H116.302H116.299H116.297H116.294H116.292H116.289H116.287H116.285H116.282H116.28H116.277H116.275H116.272H116.27H116.267H116.265H116.262H116.26H116.257H116.255H116.252H116.25H116.247H116.245H116.242H116.24H116.238H116.235H116.233H116.23H116.228H116.225H116.223H116.22H116.218H116.215H116.213H116.21H116.208H116.205H116.203H116.2H116.198H116.196H116.193H116.191H116.188H116.186H116.183H116.181H116.178H116.176H116.173H116.171H116.168H116.166H116.163H116.161H116.158H116.156H116.153H116.151H116.149H116.146H116.144H116.141H116.139H116.136H116.134H116.131H116.129H116.126H116.124H116.121H116.119H116.116H116.114H116.111H116.109H116.106H116.104H116.102H116.099H116.097H116.094H116.092H116.089H116.087H116.084H116.082H116.079H116.077H116.074H116.072H116.069H116.067H116.064H116.062H116.059H116.057H116.055H116.052H116.05H116.047H116.045H116.042H116.04H116.037H116.035H116.032H116.03H116.027H116.025H116.022H116.02H116.017H116.015H116.013H116.01H116.008H116.005H116.003H116H115.998H115.995H115.993H115.99H115.988H115.985H115.983H115.98H115.978H115.975H115.973H115.97H115.968H115.966H115.963H115.961H115.958H115.956H115.953H115.951H115.948H115.946H115.943H115.941H115.938H115.936H115.933H115.931H115.928H115.926H115.923H115.921H115.919H115.916H115.914H115.911H115.909H115.906H115.904H115.901H115.899H115.896H114.725L114.295 51.5085C111.159 59.4532 106.988 68.2549 100.027 76.1309C95.8732 80.8246 90.9735 84.8307 85.5516 87.9805C78.9504 91.7383 71.7502 94.3561 64.2695 95.7214L64.2659 95.7221C58.8624 96.7202 53.3672 97.228 47.8559 97.2091H47.85C35.571 97.2091 24.9793 94.8681 18.6093 90.9773C12.9847 87.5377 8.57474 81.881 5.56962 74.0023C2.92148 66.7808 1.63342 59.1272 1.72672 51.4329L1.72684 51.4224V51.412C1.72684 50.0274 2.86932 48.8748 4.28302 48.8748H94.5824H94.6125L94.6426 48.8738C95.2726 48.8517 96.9976 48.718 99.0112 48.3449C101 47.9762 103.436 47.3451 105.38 46.2578L106.967 45.3699L105.993 43.8336C103.443 39.8091 102.705 35.0925 103.912 29.9595C104.554 27.2658 105.66 24.6908 107.162 22.3428L107.527 21.814L108.108 22.1498C108.391 22.3138 115.773 26.693 117.07 35.5656L117.325 37.3091L119.062 37.0139C120.892 36.7029 122.714 36.5395 124.548 36.5395C131.421 36.5395 134.527 38.9913 134.646 39.0851L134.646 39.0852Z" stroke="white" stroke-width="3.44349"></path>
  <path d="M12.6475 44.5064H24.7526C25.3281 44.5064 25.8078 44.0267 25.8078 43.4511V32.6697C25.8078 32.0942 25.3474 31.6145 24.7526 31.6145H12.6475C12.072 31.6145 11.5923 32.0942 11.5923 32.6697V43.4511C11.5923 44.0267 12.072 44.5064 12.6475 44.5064Z" fill="white" fill-opacity="0.4"></path>
  <path d="M29.3182 44.5064H41.4233C41.9988 44.5064 42.4785 44.0267 42.4785 43.4511V32.6697C42.4785 32.0942 42.0181 31.6145 41.4233 31.6145H29.3182C28.7234 31.6145 28.2629 32.0942 28.2629 32.6697V43.4511C28.2629 44.0267 28.7426 44.5064 29.3182 44.5064Z" fill="white"></path>
  <path d="M46.2583 44.5064H58.3635C58.939 44.5064 59.4187 44.0267 59.4187 43.4511V32.6697C59.4187 32.0942 58.9583 31.6145 58.3635 31.6145H46.2583C45.6828 31.6145 45.2031 32.0942 45.2031 32.6697V43.4511C45.2031 44.0267 45.6635 44.5064 46.2583 44.5064Z" fill="white"></path>
  <path d="M62.9864 44.5064H75.0915C75.667 44.5064 76.1467 44.0267 76.1467 43.4511V32.6697C76.1467 32.0749 75.667 31.6145 75.0915 31.6145H62.9864C62.4108 31.6145 61.9312 32.0942 61.9312 32.6697V43.4511C61.9312 44.0267 62.3916 44.5064 62.9864 44.5064Z" fill="white"></path>
  <path d="M29.3182 29.0051H41.4233C41.9988 29.0051 42.4785 28.5254 42.4785 27.9499V17.1685C42.4785 16.593 41.9988 16.1133 41.4233 16.1133H29.3182C28.7426 16.1133 28.2629 16.593 28.2629 17.1685V27.9499C28.2629 28.5257 28.7426 29.0051 29.3182 29.0051Z" fill="white"></path>
  <path d="M46.2583 29.0051H58.3635C58.939 29.0051 59.4187 28.5254 59.4187 27.9499V17.1685C59.4187 16.593 58.939 16.1133 58.3635 16.1133H46.2583C45.6828 16.1133 45.2031 16.593 45.2031 17.1685V27.9499C45.2031 28.5257 45.6635 29.0051 46.2583 29.0051Z" fill="white" fill-opacity="0.4"></path>
  <path d="M62.9864 29.0051H75.0915C75.6863 29.0051 76.1467 28.5254 76.1467 27.9499V17.1685C76.1467 16.593 75.667 16.1133 75.0915 16.1133H62.9864C62.4108 16.1133 61.9312 16.593 61.9312 17.1685V27.9499C61.9312 28.5257 62.3916 29.0051 62.9864 29.0051Z" fill="white"></path>
  <path d="M62.9864 13.4854H75.0915C75.667 13.4854 76.1467 13.0057 76.1467 12.4301V1.64873C76.1467 1.0732 75.667 0.593506 75.0915 0.593506H62.9864C62.4108 0.593506 61.9312 1.0732 61.9312 1.64873V12.4301C61.9312 13.0249 62.3916 13.4854 62.9864 13.4854Z" fill="white"></path>
  <path d="M79.8492 44.5064H91.9543C92.5298 44.5064 93.0095 44.0267 93.0095 43.4511V32.6697C93.0095 32.0749 92.5298 31.6145 91.9543 31.6145H79.8492C79.2736 31.6145 78.7939 32.0942 78.7939 32.6697V43.4511C78.7939 44.0267 79.2736 44.5064 79.8492 44.5064Z" fill="white" fill-opacity="0.4"></path>
</svg>
